<svg width="16" height="20" viewBox="0 0 16 20" fill="none" xmlns="http://www.w3.org/2000/svg">
<path d="M14.6667 8.33317C14.6667 12.494 10.0509 16.8273 8.50087 18.1657C8.35648 18.2743 8.18071 18.333 8.00004 18.333C7.81938 18.333 7.6436 18.2743 7.49921 18.1657C5.94921 16.8273 1.33337 12.494 1.33337 8.33317C1.33337 6.56506 2.03575 4.86937 3.286 3.61913C4.53624 2.36888 6.23193 1.6665 8.00004 1.6665C9.76815 1.6665 11.4638 2.36888 12.7141 3.61913C13.9643 4.86937 14.6667 6.56506 14.6667 8.33317Z" stroke="#171923" stroke-width="1.5" stroke-linecap="round" stroke-linejoin="round"/>
<path d="M8.00004 10.8332C9.38075 10.8332 10.5 9.71388 10.5 8.33317C10.5 6.95246 9.38075 5.83317 8.00004 5.83317C6.61933 5.83317 5.50004 6.95246 5.50004 8.33317C5.50004 9.71388 6.61933 10.8332 8.00004 10.8332Z" stroke="#171923" stroke-width="1.5" stroke-linecap="round" stroke-linejoin="round"/>
</svg>
