<svg width="20" height="20" viewBox="0 0 20 20" fill="none" xmlns="http://www.w3.org/2000/svg">
<path d="M11.6667 15.0002V5.00016C11.6667 4.55814 11.4911 4.13421 11.1785 3.82165C10.866 3.50909 10.442 3.3335 10 3.3335H3.33335C2.89133 3.3335 2.4674 3.50909 2.15484 3.82165C1.84228 4.13421 1.66669 4.55814 1.66669 5.00016V14.1668C1.66669 14.3878 1.75448 14.5998 1.91076 14.7561C2.06704 14.9124 2.27901 15.0002 2.50002 15.0002H4.16669M4.16669 15.0002C4.16669 15.9206 4.91288 16.6668 5.83335 16.6668C6.75383 16.6668 7.50002 15.9206 7.50002 15.0002M4.16669 15.0002C4.16669 14.0797 4.91288 13.3335 5.83335 13.3335C6.75383 13.3335 7.50002 14.0797 7.50002 15.0002M12.5 15.0002H7.50002M12.5 15.0002C12.5 15.9206 13.2462 16.6668 14.1667 16.6668C15.0872 16.6668 15.8334 15.9206 15.8334 15.0002M12.5 15.0002C12.5 14.0797 13.2462 13.3335 14.1667 13.3335C15.0872 13.3335 15.8334 14.0797 15.8334 15.0002M15.8334 15.0002H17.5C17.721 15.0002 17.933 14.9124 18.0893 14.7561C18.2456 14.5998 18.3334 14.3878 18.3334 14.1668V11.1252C18.333 10.936 18.2684 10.7527 18.15 10.6052L15.25 6.98016C15.1721 6.88256 15.0732 6.80373 14.9607 6.74949C14.8482 6.69526 14.7249 6.66701 14.6 6.66683H11.6667" stroke="white" stroke-width="1.5" stroke-linecap="round" stroke-linejoin="round"/>
</svg>
