<svg width="40" height="41" viewBox="0 0 40 41" fill="none" xmlns="http://www.w3.org/2000/svg">
<rect y="0.5" width="40" height="40" rx="8" fill="white"/>
<path d="M23.3334 17.167H18.3334C17.8913 17.167 17.4674 17.3426 17.1549 17.6551C16.8423 17.9677 16.6667 18.3916 16.6667 18.8337C16.6667 19.2757 16.8423 19.6996 17.1549 20.0122C17.4674 20.3247 17.8913 20.5003 18.3334 20.5003H21.6667C22.1087 20.5003 22.5327 20.6759 22.8452 20.9885C23.1578 21.301 23.3334 21.725 23.3334 22.167C23.3334 22.609 23.1578 23.0329 22.8452 23.3455C22.5327 23.6581 22.1087 23.8337 21.6667 23.8337H16.6667M20 25.0837V15.917M13.3334 12.167V28.8337L15 28.0003L16.6667 28.8337L18.3334 28.0003L20 28.8337L21.6667 28.0003L23.3334 28.8337L25 28.0003L26.6667 28.8337V12.167L25 13.0003L23.3334 12.167L21.6667 13.0003L20 12.167L18.3334 13.0003L16.6667 12.167L15 13.0003L13.3334 12.167Z" stroke="#2D3748" stroke-width="1.5" stroke-linecap="round" stroke-linejoin="round"/>
</svg>
