<svg width="40" height="41" viewBox="0 0 40 41" fill="none" xmlns="http://www.w3.org/2000/svg">
<rect y="0.5" width="40" height="40" rx="8" fill="white"/>
<path d="M11.7183 20.7903C11.6489 20.6032 11.6489 20.3974 11.7183 20.2103C12.3948 18.5702 13.5429 17.1678 15.0173 16.181C16.4917 15.1943 18.2259 14.6675 20 14.6675C21.7741 14.6675 23.5083 15.1943 24.9827 16.181C26.4571 17.1678 27.6053 18.5702 28.2817 20.2103C28.3511 20.3974 28.3511 20.6032 28.2817 20.7903C27.6053 22.4304 26.4571 23.8328 24.9827 24.8196C23.5083 25.8063 21.7741 26.3331 20 26.3331C18.2259 26.3331 16.4917 25.8063 15.0173 24.8196C13.5429 23.8328 12.3948 22.4304 11.7183 20.7903Z" stroke="#171923" stroke-width="1.5" stroke-linecap="round" stroke-linejoin="round"/>
<path d="M20 23.0002C21.3807 23.0002 22.5 21.8809 22.5 20.5002C22.5 19.1195 21.3807 18.0002 20 18.0002C18.6193 18.0002 17.5 19.1195 17.5 20.5002C17.5 21.8809 18.6193 23.0002 20 23.0002Z" stroke="#171923" stroke-width="1.5" stroke-linecap="round" stroke-linejoin="round"/>
</svg>
