<svg width="40" height="41" viewBox="0 0 40 41" fill="none" xmlns="http://www.w3.org/2000/svg">
<rect y="0.5" width="40" height="40" rx="8" fill="white"/>
<path d="M15.8333 19.6667V23C15.8333 23.442 16.0089 23.866 16.3215 24.1785C16.634 24.4911 17.058 24.6667 17.5 24.6667H20.8333M14.1667 13H17.5C18.4205 13 19.1667 13.7462 19.1667 14.6667V18C19.1667 18.9205 18.4205 19.6667 17.5 19.6667H14.1667C13.2462 19.6667 12.5 18.9205 12.5 18V14.6667C12.5 13.7462 13.2462 13 14.1667 13ZM22.5 21.3333H25.8333C26.7538 21.3333 27.5 22.0795 27.5 23V26.3333C27.5 27.2538 26.7538 28 25.8333 28H22.5C21.5795 28 20.8333 27.2538 20.8333 26.3333V23C20.8333 22.0795 21.5795 21.3333 22.5 21.3333Z" stroke="#2D3748" stroke-width="1.5" stroke-linecap="round" stroke-linejoin="round"/>
</svg>
