<svg width="21" height="20" viewBox="0 0 21 20" fill="none" xmlns="http://www.w3.org/2000/svg">
<path d="M9.59468 10.9048C9.43542 10.7458 9.24561 10.6208 9.03671 10.5371L2.42837 7.88712C2.34947 7.85546 2.28214 7.80042 2.23542 7.72939C2.1887 7.65836 2.16483 7.57474 2.16701 7.48975C2.16918 7.40476 2.19731 7.32247 2.2476 7.25393C2.2979 7.18539 2.36795 7.13387 2.44837 7.10629L18.2817 1.68962C18.3555 1.66295 18.4355 1.65786 18.5121 1.67495C18.5887 1.69203 18.6589 1.73059 18.7144 1.7861C18.7699 1.84161 18.8085 1.91179 18.8255 1.98842C18.8426 2.06504 18.8375 2.14495 18.8109 2.21879L13.3942 18.0521C13.3666 18.1325 13.3151 18.2026 13.2466 18.2529C13.178 18.3032 13.0957 18.3313 13.0107 18.3335C12.9258 18.3357 12.8421 18.3118 12.7711 18.2651C12.7001 18.2184 12.645 18.151 12.6134 18.0721L9.96337 11.4621C9.87936 11.2534 9.75394 11.0638 9.59468 10.9048ZM9.59468 10.9048L18.7116 1.78955" stroke="#2D3748" stroke-width="1.5" stroke-linecap="round" stroke-linejoin="round"/>
</svg>
