<svg width="48" height="48" viewBox="0 0 48 48" fill="none" xmlns="http://www.w3.org/2000/svg">
<rect width="48" height="48" rx="12" fill="#E2E8F0"/>
<g clip-path="url(#clip0_66_503)">
<path d="M29.96 14H18.04C15.8075 14 14 15.8075 14 18.04V29.9625C14 32.1925 15.8075 34 18.04 34H29.9625C32.1925 34 34.0025 32.1925 34.0025 29.96V18.04C34 15.8075 32.1925 14 29.96 14Z" fill="url(#paint0_linear_66_503)"/>
<path d="M23.915 18.595L24.32 17.895C24.57 17.4575 25.1275 17.31 25.565 17.56C26.0025 17.81 26.15 18.3675 25.9 18.805L21.9975 25.56H24.82C25.735 25.56 26.2475 26.635 25.85 27.38H17.575C17.07 27.38 16.665 26.975 16.665 26.47C16.665 25.965 17.07 25.56 17.575 25.56H19.895L22.865 20.4125L21.9375 18.8025C21.6875 18.365 21.835 17.8125 22.2725 17.5575C22.71 17.3075 23.2625 17.455 23.5175 17.8925L23.915 18.595ZM20.405 28.3175L19.53 29.835C19.28 30.2725 18.7225 30.42 18.285 30.17C17.8475 29.92 17.7 29.3625 17.95 28.925L18.6 27.8C19.335 27.5725 19.9325 27.7475 20.405 28.3175ZM27.94 25.565H30.3075C30.8125 25.565 31.2175 25.97 31.2175 26.475C31.2175 26.98 30.8125 27.385 30.3075 27.385H28.9925L29.88 28.925C30.13 29.3625 29.9825 29.915 29.545 30.17C29.1075 30.42 28.555 30.2725 28.3 29.835C26.805 27.2425 25.6825 25.3025 24.9375 24.01C24.175 22.695 24.72 21.375 25.2575 20.9275C25.855 21.9525 26.7475 23.5 27.94 25.565Z" fill="white"/>
</g>
<defs>
<linearGradient id="paint0_linear_66_503" x1="24.0012" y1="14" x2="24.0012" y2="34" gradientUnits="userSpaceOnUse">
<stop stop-color="#18BFFB"/>
<stop offset="1" stop-color="#2072F3"/>
</linearGradient>
<clipPath id="clip0_66_503">
<rect width="20" height="20" fill="white" transform="translate(14 14)"/>
</clipPath>
</defs>
</svg>
