<svg width="48" height="48" viewBox="0 0 48 48" fill="none" xmlns="http://www.w3.org/2000/svg">
<rect width="48" height="48" rx="12" fill="#E2E8F0"/>
<g clip-path="url(#clip0_66_474)">
<path d="M23.36 23.5498L14.4133 32.3373C14.5138 32.6711 14.6943 32.979 14.9411 33.2373C15.188 33.4957 15.4945 33.6977 15.8374 33.828C16.1803 33.9583 16.5504 34.0133 16.9194 33.9889C17.2885 33.9645 17.6467 33.8614 17.9667 33.6873L28.0333 28.3123L23.36 23.5498Z" fill="#EA4335"/>
<path d="M32.4067 22.0563L28.0533 19.7188L23.1533 23.75L28.0733 28.3L32.3933 25.9875C32.776 25.7996 33.0966 25.5172 33.3203 25.1707C33.544 24.8242 33.6622 24.4269 33.6622 24.0219C33.6622 23.6169 33.544 23.2196 33.3203 22.8731C33.0966 22.5266 32.776 22.2441 32.3933 22.0563H32.4067Z" fill="#FBBC04"/>
<path d="M14.4134 15.6626C14.3593 15.85 14.3324 16.0434 14.3334 16.2376V31.7626C14.3339 31.9567 14.3608 32.1499 14.4134 32.3376L23.6667 23.7751L14.4134 15.6626Z" fill="#4285F4"/>
<path d="M23.4267 24L28.0533 19.7188L18 14.3188C17.6218 14.1111 17.1916 14.0011 16.7533 14C16.224 13.999 15.7088 14.1603 15.2863 14.4594C14.8639 14.7584 14.5573 15.1787 14.4133 15.6563L23.4267 24Z" fill="#34A853"/>
</g>
<defs>
<clipPath id="clip0_66_474">
<rect width="20" height="20" fill="white" transform="translate(14 14)"/>
</clipPath>
</defs>
</svg>
