<svg width="40" height="40" viewBox="0 0 40 40" fill="none" xmlns="http://www.w3.org/2000/svg">
<rect width="40" height="40" rx="8" fill="white"/>
<g clip-path="url(#clip0_52_615)">
<path d="M30.3604 11.4033C30.9745 12.1986 31.4877 13.07 31.922 13.9936L20.0894 22.7399L15.1194 19.6108V15.8667L20.0631 18.9698L30.3604 11.4033Z" fill="#21A038"/>
<path d="M10.0728 19.3546C10.0728 19.1743 10.0728 19.0221 10.0991 18.8418L7.1031 18.6875C7.1031 18.8939 7.07678 19.1243 7.07678 19.3285C7.07678 22.9205 8.53749 26.1779 10.8931 28.5378L13.0183 26.4082C11.2001 24.6133 10.0728 22.1252 10.0728 19.3546Z" fill="url(#paint0_linear_52_615)"/>
<path d="M20.0631 9.35054C20.2429 9.35054 20.3965 9.35054 20.5763 9.37662L20.7298 6.37568C20.5237 6.37568 20.2934 6.34961 20.0894 6.34961C16.5034 6.34961 13.2508 7.81205 10.8931 10.1719L13.0183 12.3015C14.8124 10.4805 17.3215 9.35054 20.0631 9.35054Z" fill="url(#paint1_linear_52_615)"/>
<path d="M20.0631 29.3592C19.8832 29.3592 19.7297 29.3592 19.5498 29.3331L19.3963 32.334C19.6025 32.334 19.8328 32.3601 20.0367 32.3601C23.6227 32.3601 26.8775 30.8976 29.2331 28.5378L27.1078 26.4082C25.3137 28.2553 22.8288 29.3592 20.0631 29.3592Z" fill="url(#paint2_linear_52_615)"/>
<path d="M25.6975 11.0952L28.2329 9.22204C26.0046 7.42713 23.1621 6.32324 20.063 6.32324V9.32417C22.1642 9.35025 24.1096 9.99129 25.6975 11.0952Z" fill="url(#paint3_linear_52_615)"/>
<path d="M33.0756 19.3553C33.0756 18.56 32.9989 17.7907 32.8695 17.0215L30.0775 19.0989C30.0775 19.1749 30.0775 19.2792 30.0775 19.3553C30.0775 22.3063 28.7966 24.9486 26.7744 26.7696L28.7966 29.0013C31.411 26.6414 33.0756 23.1776 33.0756 19.3553Z" fill="#21A038"/>
<path d="M20.0631 29.3593C17.1175 29.3593 14.4791 28.0772 12.6608 26.0498L10.4325 28.0772C12.8144 30.7196 16.2468 32.3602 20.0631 32.3602V29.3593Z" fill="url(#paint4_linear_52_615)"/>
<path d="M13.378 11.9407L11.3536 9.70898C8.71515 12.095 7.07678 15.5327 7.07678 19.355H10.0728C10.0728 16.4301 11.3536 13.7638 13.378 11.9407Z" fill="url(#paint5_linear_52_615)"/>
</g>
<defs>
<linearGradient id="paint0_linear_52_615" x1="10.5736" y1="28.1729" x2="7.54721" y2="19.3035" gradientUnits="userSpaceOnUse">
<stop offset="0.1444" stop-color="#F2E913"/>
<stop offset="0.3037" stop-color="#E7E518"/>
<stop offset="0.5823" stop-color="#CADB26"/>
<stop offset="0.891" stop-color="#A3CD39"/>
</linearGradient>
<linearGradient id="paint1_linear_52_615" x1="11.7476" y1="9.83317" x2="19.5036" y2="6.83645" gradientUnits="userSpaceOnUse">
<stop offset="0.0592" stop-color="#0FA8E0"/>
<stop offset="0.5385" stop-color="#0099F9"/>
<stop offset="0.9234" stop-color="#0291EB"/>
</linearGradient>
<linearGradient id="paint2_linear_52_615" x1="19.2213" y1="29.8077" x2="28.4766" y2="27.687" gradientUnits="userSpaceOnUse">
<stop offset="0.1226" stop-color="#A3CD39"/>
<stop offset="0.2846" stop-color="#86C339"/>
<stop offset="0.8693" stop-color="#21A038"/>
</linearGradient>
<linearGradient id="paint3_linear_52_615" x1="19.4474" y1="8.23536" x2="27.1389" y2="10.6415" gradientUnits="userSpaceOnUse">
<stop offset="0.0566" stop-color="#0291EB"/>
<stop offset="0.79" stop-color="#0C8ACB"/>
</linearGradient>
<linearGradient id="paint4_linear_52_615" x1="11.1943" y1="28.552" x2="19.4521" y2="31.6803" gradientUnits="userSpaceOnUse">
<stop offset="0.1324" stop-color="#F2E913"/>
<stop offset="0.2977" stop-color="#EBE716"/>
<stop offset="0.5306" stop-color="#D9E01F"/>
<stop offset="0.8023" stop-color="#BBD62D"/>
<stop offset="0.9829" stop-color="#A3CD39"/>
</linearGradient>
<linearGradient id="paint5_linear_52_615" x1="9.37311" y1="19.7176" x2="12.6458" y2="11.086" gradientUnits="userSpaceOnUse">
<stop offset="0.0698" stop-color="#A3CD39"/>
<stop offset="0.2599" stop-color="#81C55F"/>
<stop offset="0.9216" stop-color="#0FA8E0"/>
</linearGradient>
<clipPath id="clip0_52_615">
<rect width="26" height="28" fill="white" transform="translate(7 6)"/>
</clipPath>
</defs>
</svg>
