<svg width="19" height="16" viewBox="0 0 19 16" fill="none" xmlns="http://www.w3.org/2000/svg">
<path d="M11.4166 13.0002V3.00016C11.4166 2.55814 11.241 2.13421 10.9285 1.82165C10.6159 1.50909 10.192 1.3335 9.74996 1.3335H3.08329C2.64127 1.3335 2.21734 1.50909 1.90478 1.82165C1.59222 2.13421 1.41663 2.55814 1.41663 3.00016V12.1668C1.41663 12.3878 1.50442 12.5998 1.6607 12.7561C1.81698 12.9124 2.02895 13.0002 2.24996 13.0002H3.91663M3.91663 13.0002C3.91663 13.9206 4.66282 14.6668 5.58329 14.6668C6.50377 14.6668 7.24996 13.9206 7.24996 13.0002M3.91663 13.0002C3.91663 12.0797 4.66282 11.3335 5.58329 11.3335C6.50377 11.3335 7.24996 12.0797 7.24996 13.0002M12.25 13.0002H7.24996M12.25 13.0002C12.25 13.9206 12.9962 14.6668 13.9166 14.6668C14.8371 14.6668 15.5833 13.9206 15.5833 13.0002M12.25 13.0002C12.25 12.0797 12.9962 11.3335 13.9166 11.3335C14.8371 11.3335 15.5833 12.0797 15.5833 13.0002M15.5833 13.0002H17.25C17.471 13.0002 17.6829 12.9124 17.8392 12.7561C17.9955 12.5998 18.0833 12.3878 18.0833 12.1668V9.12516C18.083 8.93605 18.0183 8.75267 17.9 8.60516L15 4.98016C14.922 4.88256 14.8231 4.80373 14.7106 4.74949C14.5981 4.69526 14.4749 4.66701 14.35 4.66683H11.4166" stroke="#171923" stroke-width="1.5" stroke-linecap="round" stroke-linejoin="round"/>
</svg>
