<svg width="19" height="20" viewBox="0 0 19 20" fill="none" xmlns="http://www.w3.org/2000/svg">
<path d="M7.01176 11.6665H3.92009C3.74537 11.6666 3.57508 11.7216 3.43332 11.8237C3.29156 11.9258 3.18548 12.07 3.13009 12.2357L1.46009 17.2357C1.41823 17.3609 1.40673 17.4943 1.42656 17.6249C1.44638 17.7555 1.49695 17.8795 1.57411 17.9867C1.65127 18.0939 1.7528 18.1812 1.87033 18.2414C1.98786 18.3017 2.11802 18.3331 2.25009 18.3332H17.2501C17.3821 18.3331 17.5121 18.3016 17.6296 18.2414C17.747 18.1812 17.8485 18.094 17.9256 17.9869C18.0028 17.8798 18.0534 17.756 18.0733 17.6255C18.0932 17.495 18.0818 17.3617 18.0401 17.2365L16.3734 12.2365C16.3181 12.0705 16.212 11.9261 16.0701 11.8238C15.9281 11.7215 15.7576 11.6665 15.5826 11.6665H12.4893M14.75 6.6665C14.75 9.67734 11.5259 12.8573 10.2559 13.9957C10.1106 14.1066 9.93285 14.1668 9.75004 14.1668C9.56723 14.1668 9.38949 14.1066 9.24421 13.9957C7.97504 12.8573 4.75004 9.67734 4.75004 6.6665C4.75004 5.34042 5.27682 4.06865 6.21451 3.13097C7.15219 2.19329 8.42396 1.6665 9.75004 1.6665C11.0761 1.6665 12.3479 2.19329 13.2856 3.13097C14.2233 4.06865 14.75 5.34042 14.75 6.6665ZM11.4167 6.6665C11.4167 7.58698 10.6705 8.33317 9.75004 8.33317C8.82957 8.33317 8.08337 7.58698 8.08337 6.6665C8.08337 5.74603 8.82957 4.99984 9.75004 4.99984C10.6705 4.99984 11.4167 5.74603 11.4167 6.6665Z" stroke="#171923" stroke-width="1.5" stroke-linecap="round" stroke-linejoin="round"/>
</svg>
