<svg width="17" height="18" viewBox="0 0 17 18" fill="none" xmlns="http://www.w3.org/2000/svg">
<path d="M10.75 3.80333C10.4914 3.80333 10.2363 3.74315 10.005 3.62755L6.495 1.87255C6.26367 1.75696 6.00861 1.69678 5.75 1.69678M10.75 3.80333C11.0086 3.80333 11.2637 3.74315 11.495 3.62755L14.5442 2.10255C14.6713 2.03902 14.8126 2.00906 14.9546 2.01553C15.0966 2.02199 15.2345 2.06467 15.3554 2.1395C15.4762 2.21432 15.5759 2.31882 15.645 2.44304C15.7141 2.56726 15.7502 2.70709 15.75 2.84922V13.4859C15.7499 13.6406 15.7068 13.7922 15.6254 13.9238C15.544 14.0554 15.4276 14.1617 15.2892 14.2309L11.495 16.1284C11.2637 16.244 11.0086 16.3042 10.75 16.3042C10.4914 16.3042 10.2363 16.244 10.005 16.1284L6.495 14.3734C6.26367 14.2578 6.00861 14.1976 5.75 14.1976C5.49139 14.1976 5.23633 14.2578 5.005 14.3734L1.95584 15.8984C1.82863 15.962 1.68727 15.9919 1.54522 15.9854C1.40316 15.9789 1.26513 15.9362 1.14427 15.8612C1.0234 15.7863 0.92372 15.6817 0.854708 15.5574C0.785697 15.433 0.749652 15.2931 0.750003 15.1509V4.51505C0.750085 4.36034 0.793238 4.2087 0.874629 4.07712C0.95602 3.94554 1.07244 3.83921 1.21084 3.77005L5.005 1.87255C5.23633 1.75696 5.49139 1.69678 5.75 1.69678M10.75 3.80333L10.75 16.3033M5.75 1.69678L5.75 14.1968" stroke="#171923" stroke-width="1.5" stroke-linecap="round" stroke-linejoin="round"/>
</svg>
