<svg width="20" height="20" viewBox="0 0 20 20" fill="none" xmlns="http://www.w3.org/2000/svg">
<path d="M13 3.76419C12.6897 3.76419 12.3836 3.69198 12.106 3.55326L7.894 1.44726C7.6164 1.30854 7.31033 1.23633 7 1.23633M13 3.76419C13.3103 3.76419 13.6164 3.69198 13.894 3.55326L17.553 1.72326C17.7056 1.64702 17.8751 1.61107 18.0455 1.61883C18.2159 1.62659 18.3814 1.6778 18.5265 1.76759C18.6715 1.85738 18.7911 1.98277 18.874 2.13184C18.9569 2.28091 19.0003 2.4487 19 2.61926V15.3833C18.9999 15.5689 18.9481 15.7509 18.8505 15.9088C18.7528 16.0667 18.6131 16.1943 18.447 16.2773L13.894 18.5543C13.6164 18.693 13.3103 18.7652 13 18.7652C12.6897 18.7652 12.3836 18.693 12.106 18.5543L7.894 16.4483C7.6164 16.3095 7.31033 16.2373 7 16.2373C6.68967 16.2373 6.3836 16.3095 6.106 16.4483L2.447 18.2783C2.29436 18.3545 2.12473 18.3905 1.95426 18.3827C1.78379 18.3749 1.61816 18.3236 1.47312 18.2337C1.32808 18.1438 1.20846 18.0182 1.12565 17.869C1.04284 17.7198 0.999582 17.5519 1 17.3813V4.61826C1.0001 4.4326 1.05189 4.25063 1.14956 4.09273C1.24722 3.93484 1.38692 3.80725 1.553 3.72426L6.106 1.44726C6.3836 1.30854 6.68967 1.23633 7 1.23633M13 3.76419L13 18.7642M7 1.23633L7 16.2363" stroke="white" stroke-width="1.5" stroke-linecap="round" stroke-linejoin="round"/>
</svg>
