<svg width="20" height="21" viewBox="0 0 20 21" fill="none" xmlns="http://www.w3.org/2000/svg">
<path d="M1.71835 10.7903C1.6489 10.6032 1.6489 10.3974 1.71835 10.2103C2.39476 8.57018 3.54294 7.16783 5.01732 6.18105C6.4917 5.19426 8.22588 4.66748 10 4.66748C11.7741 4.66748 13.5083 5.19426 14.9827 6.18105C16.4571 7.16783 17.6053 8.57018 18.2817 10.2103C18.3511 10.3974 18.3511 10.6032 18.2817 10.7903C17.6053 12.4304 16.4571 13.8328 14.9827 14.8196C13.5083 15.8063 11.7741 16.3331 10 16.3331C8.22588 16.3331 6.4917 15.8063 5.01732 14.8196C3.54294 13.8328 2.39476 12.4304 1.71835 10.7903Z" stroke="#171923" stroke-width="1.5" stroke-linecap="round" stroke-linejoin="round"/>
<path d="M10 13.0002C11.3807 13.0002 12.5 11.8809 12.5 10.5002C12.5 9.11949 11.3807 8.0002 10 8.0002C8.61929 8.0002 7.5 9.11949 7.5 10.5002C7.5 11.8809 8.61929 13.0002 10 13.0002Z" stroke="#171923" stroke-width="1.5" stroke-linecap="round" stroke-linejoin="round"/>
</svg>
